%TF.GenerationSoftware,KiCad,Pcbnew,7.0.8*%
%TF.CreationDate,2023-12-04T11:10:45+01:00*%
%TF.ProjectId,scriptPad_PCB,73637269-7074-4506-9164-5f5043422e6b,rev?*%
%TF.SameCoordinates,Original*%
%TF.FileFunction,Soldermask,Bot*%
%TF.FilePolarity,Negative*%
%FSLAX46Y46*%
G04 Gerber Fmt 4.6, Leading zero omitted, Abs format (unit mm)*
G04 Created by KiCad (PCBNEW 7.0.8) date 2023-12-04 11:10:45*
%MOMM*%
%LPD*%
G01*
G04 APERTURE LIST*
G04 Aperture macros list*
%AMRoundRect*
0 Rectangle with rounded corners*
0 $1 Rounding radius*
0 $2 $3 $4 $5 $6 $7 $8 $9 X,Y pos of 4 corners*
0 Add a 4 corners polygon primitive as box body*
4,1,4,$2,$3,$4,$5,$6,$7,$8,$9,$2,$3,0*
0 Add four circle primitives for the rounded corners*
1,1,$1+$1,$2,$3*
1,1,$1+$1,$4,$5*
1,1,$1+$1,$6,$7*
1,1,$1+$1,$8,$9*
0 Add four rect primitives between the rounded corners*
20,1,$1+$1,$2,$3,$4,$5,0*
20,1,$1+$1,$4,$5,$6,$7,0*
20,1,$1+$1,$6,$7,$8,$9,0*
20,1,$1+$1,$8,$9,$2,$3,0*%
G04 Aperture macros list end*
%ADD10R,1.800000X2.600000*%
%ADD11C,1.600000*%
%ADD12R,1.250000X0.300000*%
%ADD13R,2.500000X2.000000*%
%ADD14RoundRect,0.250000X0.450000X-0.262500X0.450000X0.262500X-0.450000X0.262500X-0.450000X-0.262500X0*%
%ADD15C,5.400000*%
%ADD16C,1.750000*%
%ADD17C,3.050000*%
%ADD18C,4.000000*%
%ADD19RoundRect,0.250000X1.025000X1.000000X-1.025000X1.000000X-1.025000X-1.000000X1.025000X-1.000000X0*%
%ADD20O,2.250000X0.630000*%
%ADD21RoundRect,0.200000X-0.275000X0.200000X-0.275000X-0.200000X0.275000X-0.200000X0.275000X0.200000X0*%
%ADD22R,1.000000X1.000000*%
%ADD23O,1.000000X1.000000*%
%ADD24C,0.900000*%
%ADD25R,1.400000X1.000000*%
%ADD26R,1.700000X1.000000*%
%ADD27R,1.200000X0.820000*%
%ADD28RoundRect,0.250000X-0.600000X0.400000X-0.600000X-0.400000X0.600000X-0.400000X0.600000X0.400000X0*%
%ADD29RoundRect,0.225000X-0.250000X0.225000X-0.250000X-0.225000X0.250000X-0.225000X0.250000X0.225000X0*%
%ADD30R,1.200000X0.550000*%
%ADD31RoundRect,0.250000X0.475000X-0.250000X0.475000X0.250000X-0.475000X0.250000X-0.475000X-0.250000X0*%
%ADD32C,1.200000*%
%ADD33R,0.700000X1.600000*%
%ADD34R,1.200000X1.500000*%
%ADD35R,1.200000X2.200000*%
%ADD36R,1.600000X1.500000*%
%ADD37R,1.400000X1.200000*%
%ADD38RoundRect,0.225000X0.250000X-0.225000X0.250000X0.225000X-0.250000X0.225000X-0.250000X-0.225000X0*%
%ADD39C,0.750000*%
%ADD40O,1.200000X2.000000*%
%ADD41O,1.200000X1.800000*%
%ADD42R,0.300000X1.300000*%
%ADD43RoundRect,0.050000X0.387500X0.050000X-0.387500X0.050000X-0.387500X-0.050000X0.387500X-0.050000X0*%
%ADD44RoundRect,0.050000X0.050000X0.387500X-0.050000X0.387500X-0.050000X-0.387500X0.050000X-0.387500X0*%
%ADD45R,3.200000X3.200000*%
%ADD46RoundRect,0.225000X0.225000X0.250000X-0.225000X0.250000X-0.225000X-0.250000X0.225000X-0.250000X0*%
%ADD47RoundRect,0.225000X-0.225000X-0.250000X0.225000X-0.250000X0.225000X0.250000X-0.225000X0.250000X0*%
%ADD48RoundRect,0.150000X-0.512500X-0.150000X0.512500X-0.150000X0.512500X0.150000X-0.512500X0.150000X0*%
%ADD49RoundRect,0.250000X-0.262500X-0.450000X0.262500X-0.450000X0.262500X0.450000X-0.262500X0.450000X0*%
G04 APERTURE END LIST*
D10*
%TO.C,SW1*%
X112534000Y-60710000D03*
X101334000Y-60710000D03*
D11*
X106934000Y-68210000D03*
X109434000Y-68210000D03*
X104434000Y-68210000D03*
X104434000Y-53710000D03*
X109434000Y-53710000D03*
%TD*%
D12*
%TO.C,FPC1*%
X79014000Y-60266000D03*
X79014000Y-60766000D03*
X79014000Y-61266000D03*
X79014000Y-61766000D03*
X79014000Y-62266000D03*
X79014000Y-62766000D03*
X79014000Y-63266000D03*
X79014000Y-63766000D03*
X79014000Y-64266000D03*
X79014000Y-64766000D03*
X79014000Y-65266000D03*
X79014000Y-65766000D03*
X79014000Y-66266000D03*
X79014000Y-66766000D03*
X79014000Y-67266000D03*
X79014000Y-67766000D03*
X79014000Y-68266000D03*
X79014000Y-68766000D03*
D13*
X76434000Y-70456000D03*
X76474000Y-58576000D03*
%TD*%
D14*
%TO.C,R5*%
X94234000Y-71223500D03*
X94234000Y-73048500D03*
%TD*%
D15*
%TO.C,*%
X234775682Y-147066000D03*
%TD*%
%TO.C,*%
X234775682Y-44069000D03*
%TD*%
D16*
%TO.C,SW_CN9*%
X47244000Y-139700000D03*
D17*
X45974000Y-142240000D03*
D18*
X42164000Y-139700000D03*
D17*
X39624000Y-144780000D03*
D16*
X37084000Y-139700000D03*
D19*
X49249000Y-142240000D03*
X36322000Y-144780000D03*
%TD*%
D20*
%TO.C,U3*%
X99848000Y-50414000D03*
X99848000Y-49144000D03*
X99848000Y-47884000D03*
X99848000Y-46604000D03*
X106908000Y-50414000D03*
X106908000Y-49144000D03*
X106908000Y-47884000D03*
X106908000Y-46604000D03*
%TD*%
D21*
%TO.C,R12*%
X73406000Y-51650400D03*
X73406000Y-50000400D03*
%TD*%
%TO.C,R11*%
X71882000Y-51650400D03*
X71882000Y-50000400D03*
%TD*%
%TO.C,R2*%
X74955400Y-51650400D03*
X74955400Y-50000400D03*
%TD*%
%TO.C,R1*%
X70358000Y-51663600D03*
X70358000Y-50013600D03*
%TD*%
D22*
%TO.C,J1*%
X116840000Y-85090000D03*
D23*
X116840000Y-86360000D03*
X116840000Y-87630000D03*
X116840000Y-88900000D03*
X116840000Y-90170000D03*
%TD*%
D16*
%TO.C,SW_CN6*%
X67564000Y-119380000D03*
D17*
X66294000Y-121920000D03*
D18*
X62484000Y-119380000D03*
D17*
X59944000Y-124460000D03*
D16*
X57404000Y-119380000D03*
D19*
X69569000Y-121920000D03*
X56642000Y-124460000D03*
%TD*%
D15*
%TO.C,H4*%
X211328000Y-147066000D03*
%TD*%
D16*
%TO.C,SW_CN5*%
X47244000Y-119380000D03*
D17*
X45974000Y-121920000D03*
D18*
X42164000Y-119380000D03*
D17*
X39624000Y-124460000D03*
D16*
X37084000Y-119380000D03*
D19*
X49249000Y-121920000D03*
X36322000Y-124460000D03*
%TD*%
D15*
%TO.C,*%
X220472000Y-44069000D03*
%TD*%
D16*
%TO.C,SW_CN4*%
X108204000Y-99060000D03*
D17*
X106934000Y-101600000D03*
D18*
X103124000Y-99060000D03*
D17*
X100584000Y-104140000D03*
D16*
X98044000Y-99060000D03*
D19*
X110209000Y-101600000D03*
X97282000Y-104140000D03*
%TD*%
D16*
%TO.C,SW_CN7*%
X87884000Y-119380000D03*
D17*
X86614000Y-121920000D03*
D18*
X82804000Y-119380000D03*
D17*
X80264000Y-124460000D03*
D16*
X77724000Y-119380000D03*
D19*
X89889000Y-121920000D03*
X76962000Y-124460000D03*
%TD*%
D16*
%TO.C,SW_CN3*%
X87884000Y-99060000D03*
D17*
X86614000Y-101600000D03*
D18*
X82804000Y-99060000D03*
D17*
X80264000Y-104140000D03*
D16*
X77724000Y-99060000D03*
D19*
X89889000Y-101600000D03*
X76962000Y-104140000D03*
%TD*%
D16*
%TO.C,SW_CN12*%
X108204000Y-139700000D03*
D17*
X106934000Y-142240000D03*
D18*
X103124000Y-139700000D03*
D17*
X100584000Y-144780000D03*
D16*
X98044000Y-139700000D03*
D19*
X110209000Y-142240000D03*
X97282000Y-144780000D03*
%TD*%
D15*
%TO.C,*%
X124841000Y-147066000D03*
%TD*%
D16*
%TO.C,SW_CN2*%
X67564000Y-99060000D03*
D17*
X66294000Y-101600000D03*
D18*
X62484000Y-99060000D03*
D17*
X59944000Y-104140000D03*
D16*
X57404000Y-99060000D03*
D19*
X69569000Y-101600000D03*
X56642000Y-104140000D03*
%TD*%
D15*
%TO.C,*%
X124841000Y-44069000D03*
%TD*%
%TO.C,*%
X220472000Y-147066000D03*
%TD*%
%TO.C,H4*%
X115570000Y-147066000D03*
%TD*%
D16*
%TO.C,SW_CN1*%
X47244000Y-99060000D03*
D17*
X45974000Y-101600000D03*
D18*
X42164000Y-99060000D03*
D17*
X39624000Y-104140000D03*
D16*
X37084000Y-99060000D03*
D19*
X49249000Y-101600000D03*
X36322000Y-104140000D03*
%TD*%
D15*
%TO.C,H3*%
X28448000Y-147066000D03*
%TD*%
%TO.C,H2*%
X28448000Y-44069000D03*
%TD*%
D16*
%TO.C,SW_CN10*%
X67564000Y-139700000D03*
D17*
X66294000Y-142240000D03*
D18*
X62484000Y-139700000D03*
D17*
X59944000Y-144780000D03*
D16*
X57404000Y-139700000D03*
D19*
X69569000Y-142240000D03*
X56642000Y-144780000D03*
%TD*%
D15*
%TO.C,*%
X211328000Y-44069000D03*
%TD*%
%TO.C,H1*%
X115570000Y-44069000D03*
%TD*%
D16*
%TO.C,SW_CN11*%
X87884000Y-139700000D03*
D17*
X86614000Y-142240000D03*
D18*
X82804000Y-139700000D03*
D17*
X80264000Y-144780000D03*
D16*
X77724000Y-139700000D03*
D19*
X89889000Y-142240000D03*
X76962000Y-144780000D03*
%TD*%
D16*
%TO.C,SW_CN8*%
X108204000Y-119380000D03*
D17*
X106934000Y-121920000D03*
D18*
X103124000Y-119380000D03*
D17*
X100584000Y-124460000D03*
D16*
X98044000Y-119380000D03*
D19*
X110209000Y-121920000D03*
X97282000Y-124460000D03*
%TD*%
D24*
%TO.C,SW2*%
X115604500Y-53705000D03*
X115604500Y-51705000D03*
D25*
X115004500Y-55055000D03*
X115004500Y-50355000D03*
D26*
X117404500Y-56355000D03*
X117404500Y-49055000D03*
%TD*%
D27*
%TO.C,LED9*%
X44664000Y-135370000D03*
X44664000Y-133870000D03*
X39664000Y-133870000D03*
X39664000Y-135370000D03*
%TD*%
D28*
%TO.C,D12*%
X95504000Y-132870000D03*
X95504000Y-136370000D03*
%TD*%
D27*
%TO.C,LED8*%
X105624000Y-115050000D03*
X105624000Y-113550000D03*
X100624000Y-113550000D03*
X100624000Y-115050000D03*
%TD*%
D24*
%TO.C,SW3*%
X115697000Y-76930000D03*
X115697000Y-74930000D03*
D25*
X115097000Y-78280000D03*
X115097000Y-73580000D03*
D26*
X117497000Y-79580000D03*
X117497000Y-72280000D03*
%TD*%
D29*
%TO.C,C6*%
X91440000Y-75933000D03*
X91440000Y-77483000D03*
%TD*%
D30*
%TO.C,U4*%
X40162000Y-78552000D03*
X40162000Y-79502000D03*
X40162000Y-80452000D03*
X37562000Y-80452000D03*
X37562000Y-78552000D03*
%TD*%
D14*
%TO.C,R8*%
X52578000Y-58951500D03*
X52578000Y-57126500D03*
%TD*%
%TO.C,R7*%
X54991000Y-58951500D03*
X54991000Y-57126500D03*
%TD*%
D27*
%TO.C,LED1*%
X44664000Y-94730000D03*
X44664000Y-93230000D03*
X39664000Y-93230000D03*
X39664000Y-94730000D03*
%TD*%
%TO.C,LED4*%
X105624000Y-94730000D03*
X105624000Y-93230000D03*
X100624000Y-93230000D03*
X100624000Y-94730000D03*
%TD*%
D31*
%TO.C,C1*%
X65532000Y-47686000D03*
X65532000Y-45786000D03*
%TD*%
D28*
%TO.C,D9*%
X34544000Y-132870000D03*
X34544000Y-136370000D03*
%TD*%
D29*
%TO.C,C8*%
X87376000Y-73393000D03*
X87376000Y-74943000D03*
%TD*%
D32*
%TO.C,Card1*%
X47880000Y-43434000D03*
X55880000Y-43434000D03*
D33*
X55080000Y-54434000D03*
X53980000Y-54434000D03*
X52880000Y-54434000D03*
X51780000Y-54434000D03*
X50680000Y-54434000D03*
X49580000Y-54434000D03*
X48480000Y-54434000D03*
X47380000Y-54434000D03*
X46280000Y-54434000D03*
D34*
X45080000Y-53434000D03*
D35*
X45080000Y-43834000D03*
D36*
X59680000Y-53434000D03*
D35*
X60580000Y-43834000D03*
%TD*%
D27*
%TO.C,LED5*%
X44664000Y-115050000D03*
X44664000Y-113550000D03*
X39664000Y-113550000D03*
X39664000Y-115050000D03*
%TD*%
%TO.C,LED6*%
X64984000Y-115050000D03*
X64984000Y-113550000D03*
X59984000Y-113550000D03*
X59984000Y-115050000D03*
%TD*%
D31*
%TO.C,C7*%
X90932000Y-58608000D03*
X90932000Y-56708000D03*
%TD*%
D37*
%TO.C,X1*%
X96350000Y-77588000D03*
X94150000Y-77588000D03*
X94150000Y-75828000D03*
X96350000Y-75828000D03*
%TD*%
D31*
%TO.C,C3*%
X95758000Y-49972000D03*
X95758000Y-48072000D03*
%TD*%
D38*
%TO.C,C5*%
X99060000Y-77483000D03*
X99060000Y-75933000D03*
%TD*%
D31*
%TO.C,C2*%
X87630000Y-49022000D03*
X87630000Y-47122000D03*
%TD*%
D27*
%TO.C,LED12*%
X105624000Y-135370000D03*
X105624000Y-133870000D03*
X100624000Y-133870000D03*
X100624000Y-135370000D03*
%TD*%
D31*
%TO.C,C11*%
X86969600Y-58608000D03*
X86969600Y-56708000D03*
%TD*%
D27*
%TO.C,LED10*%
X64984000Y-135370000D03*
X64984000Y-133870000D03*
X59984000Y-133870000D03*
X59984000Y-135370000D03*
%TD*%
D28*
%TO.C,D10*%
X54864000Y-132870000D03*
X54864000Y-136370000D03*
%TD*%
D29*
%TO.C,C14*%
X89154000Y-73393000D03*
X89154000Y-74943000D03*
%TD*%
D39*
%TO.C,USBC1*%
X69744000Y-45660000D03*
X75544000Y-45660000D03*
D40*
X68314000Y-46160000D03*
X76974000Y-46160000D03*
D41*
X76974000Y-41980000D03*
X68314000Y-41980000D03*
D42*
X69294000Y-46920000D03*
X70094000Y-46920000D03*
X71394000Y-46920000D03*
X72394000Y-46920000D03*
X72894000Y-46920000D03*
X73894000Y-46920000D03*
X75194000Y-46920000D03*
X75994000Y-46920000D03*
X75694000Y-46920000D03*
X74894000Y-46920000D03*
X74394000Y-46920000D03*
X73394000Y-46920000D03*
X71894000Y-46920000D03*
X70894000Y-46920000D03*
X70394000Y-46920000D03*
X69594000Y-46920000D03*
%TD*%
D28*
%TO.C,D4*%
X95504000Y-88420000D03*
X95504000Y-91920000D03*
%TD*%
D38*
%TO.C,C10*%
X94234000Y-58687000D03*
X94234000Y-57137000D03*
%TD*%
D28*
%TO.C,D11*%
X75184000Y-132870000D03*
X75184000Y-136370000D03*
%TD*%
%TO.C,D2*%
X54102000Y-88674000D03*
X54102000Y-92174000D03*
%TD*%
%TO.C,D7*%
X75184000Y-112550000D03*
X75184000Y-116050000D03*
%TD*%
D14*
%TO.C,R3*%
X110617000Y-48410500D03*
X110617000Y-46585500D03*
%TD*%
D28*
%TO.C,D3*%
X74422000Y-88674000D03*
X74422000Y-92174000D03*
%TD*%
D43*
%TO.C,U1*%
X97633500Y-62716000D03*
X97633500Y-63116000D03*
X97633500Y-63516000D03*
X97633500Y-63916000D03*
X97633500Y-64316000D03*
X97633500Y-64716000D03*
X97633500Y-65116000D03*
X97633500Y-65516000D03*
X97633500Y-65916000D03*
X97633500Y-66316000D03*
X97633500Y-66716000D03*
X97633500Y-67116000D03*
X97633500Y-67516000D03*
X97633500Y-67916000D03*
D44*
X96796000Y-68753500D03*
X96396000Y-68753500D03*
X95996000Y-68753500D03*
X95596000Y-68753500D03*
X95196000Y-68753500D03*
X94796000Y-68753500D03*
X94396000Y-68753500D03*
X93996000Y-68753500D03*
X93596000Y-68753500D03*
X93196000Y-68753500D03*
X92796000Y-68753500D03*
X92396000Y-68753500D03*
X91996000Y-68753500D03*
X91596000Y-68753500D03*
D43*
X90758500Y-67916000D03*
X90758500Y-67516000D03*
X90758500Y-67116000D03*
X90758500Y-66716000D03*
X90758500Y-66316000D03*
X90758500Y-65916000D03*
X90758500Y-65516000D03*
X90758500Y-65116000D03*
X90758500Y-64716000D03*
X90758500Y-64316000D03*
X90758500Y-63916000D03*
X90758500Y-63516000D03*
X90758500Y-63116000D03*
X90758500Y-62716000D03*
D44*
X91596000Y-61878500D03*
X91996000Y-61878500D03*
X92396000Y-61878500D03*
X92796000Y-61878500D03*
X93196000Y-61878500D03*
X93596000Y-61878500D03*
X93996000Y-61878500D03*
X94396000Y-61878500D03*
X94796000Y-61878500D03*
X95196000Y-61878500D03*
X95596000Y-61878500D03*
X95996000Y-61878500D03*
X96396000Y-61878500D03*
X96796000Y-61878500D03*
D45*
X94196000Y-65316000D03*
%TD*%
D46*
%TO.C,C13*%
X86881000Y-61087000D03*
X85331000Y-61087000D03*
%TD*%
D28*
%TO.C,D5*%
X34544000Y-112550000D03*
X34544000Y-116050000D03*
%TD*%
D47*
%TO.C,C9*%
X103899000Y-63119000D03*
X102349000Y-63119000D03*
%TD*%
D27*
%TO.C,LED7*%
X85304000Y-115050000D03*
X85304000Y-113550000D03*
X80304000Y-113550000D03*
X80304000Y-115050000D03*
%TD*%
D28*
%TO.C,D1*%
X34544000Y-88674000D03*
X34544000Y-92174000D03*
%TD*%
D27*
%TO.C,LED2*%
X64984000Y-94730000D03*
X64984000Y-93230000D03*
X59984000Y-93230000D03*
X59984000Y-94730000D03*
%TD*%
D48*
%TO.C,U2*%
X82174500Y-48956000D03*
X82174500Y-48006000D03*
X82174500Y-47056000D03*
X84449500Y-47056000D03*
X84449500Y-48956000D03*
%TD*%
D28*
%TO.C,D8*%
X95504000Y-112550000D03*
X95504000Y-116050000D03*
%TD*%
D14*
%TO.C,R4*%
X85598000Y-75093500D03*
X85598000Y-73268500D03*
%TD*%
D38*
%TO.C,C12*%
X88950800Y-58636200D03*
X88950800Y-57086200D03*
%TD*%
D14*
%TO.C,R9*%
X50165000Y-58951500D03*
X50165000Y-57126500D03*
%TD*%
D27*
%TO.C,LED11*%
X85304000Y-135370000D03*
X85304000Y-133870000D03*
X80304000Y-133870000D03*
X80304000Y-135370000D03*
%TD*%
D14*
%TO.C,R6*%
X57404000Y-58951500D03*
X57404000Y-57126500D03*
%TD*%
D27*
%TO.C,LED3*%
X85304000Y-94730000D03*
X85304000Y-93230000D03*
X80304000Y-93230000D03*
X80304000Y-94730000D03*
%TD*%
D38*
%TO.C,C4*%
X93218000Y-50051000D03*
X93218000Y-48501000D03*
%TD*%
D49*
%TO.C,R10*%
X44553500Y-79502000D03*
X46378500Y-79502000D03*
%TD*%
D28*
%TO.C,D6*%
X54864000Y-112550000D03*
X54864000Y-116050000D03*
%TD*%
M02*
