M48
; DRILL file {KiCad 7.0.8} date Mon Dec  4 11:10:42 2023
; FORMAT={-:-/ absolute / inch / decimal}
; #@! TF.CreationDate,2023-12-04T11:10:42+01:00
; #@! TF.GenerationSoftware,Kicad,Pcbnew,7.0.8
; #@! TF.FileFunction,Plated,1,2,PTH
FMAT,2
INCH
; #@! TA.AperFunction,Plated,PTH,ViaDrill
T1C0.0118
; #@! TA.AperFunction,Plated,PTH,ViaDrill
T2C0.0157
; #@! TA.AperFunction,Plated,PTH,ComponentDrill
T3C0.0256
; #@! TA.AperFunction,Plated,PTH,ComponentDrill
T4C0.0295
; #@! TA.AperFunction,Plated,PTH,ComponentDrill
T5C0.0315
; #@! TA.AperFunction,Plated,PTH,ComponentDrill
T6C0.0354
; #@! TA.AperFunction,Plated,PTH,ComponentDrill
T7C0.0394
; #@! TA.AperFunction,Plated,PTH,ComponentDrill
T8C0.0472
; #@! TA.AperFunction,Plated,PTH,ComponentDrill
T9C0.0512
; #@! TA.AperFunction,Plated,PTH,ComponentDrill
T10C0.1063
%
G90
G05
T1
X3.6164Y-2.34
X3.6936Y-2.3578
T2
X1.19Y-3.8
X1.19Y-4.64
X1.19Y-5.45
X1.28Y-4.48
X1.2846Y-3.56
X1.3Y-5.28
X1.32Y-5.02
X1.42Y-3.32
X1.42Y-3.73
X1.44Y-5.29
X1.46Y-4.35
X1.46Y-4.49
X1.46Y-5.14
X1.49Y-3.565
X1.76Y-3.79
X1.76Y-4.6
X1.76Y-5.39
X1.82Y-2.065
X1.84Y-4.47
X1.85Y-1.96
X1.85Y-3.67
X1.86Y-5.27
X1.87Y-4.56
X1.88Y-3.54
X1.88Y-3.73
X1.88Y-5.33
X1.935Y-2.065
X1.95Y-2.02
X2.04Y-2.02
X2.06Y-2.06
X2.18Y-1.93
X2.23Y-3.78
X2.24Y-3.73
X2.24Y-5.33
X2.24Y-5.39
X2.25Y-4.53
X2.26Y-1.935
X2.26Y-2.05
X2.27Y-4.35
X2.27Y-4.59
X2.28Y-5.14
X2.34Y-1.96
X2.36Y-2.16
X2.38Y-2.24
X2.4Y-2.2
X2.64Y-4.54
X2.6495Y-5.2705
X2.65Y-4.47
X2.66Y-3.67
X2.66Y-3.73
X2.69Y-5.33
X2.74Y-3.5746
X2.79Y-2.11
X2.84Y-2.32
X2.84Y-2.42
X2.84Y-2.54
X2.84Y-2.66
X2.86Y-2.74
X2.96Y-2.2
X3.0Y-3.45
X3.01Y-2.555
X3.02Y-2.04
X3.04Y-4.35
X3.05Y-3.73
X3.05Y-4.53
X3.06Y-5.14
X3.06Y-5.33
X3.06Y-5.4
X3.08Y-2.2
X3.08Y-3.78
X3.09Y-4.57
X3.115Y-2.33
X3.175Y-2.385
X3.205Y-2.525
X3.2359Y-2.7609
X3.25Y-2.465
X3.3Y-1.8
X3.3Y-2.575
X3.3008Y-2.5342
X3.32Y-2.06
X3.32Y-3.38
X3.345Y-3.02
X3.365Y-2.83
X3.39Y-2.355
X3.42Y-2.82
X3.44Y-4.47
X3.44Y-4.55
X3.44Y-5.27
X3.44Y-5.33
X3.45Y-2.49
X3.45Y-2.531
X3.45Y-3.67
X3.47Y-2.45
X3.47Y-3.73
X3.51Y-3.005
X3.56Y-3.085
X3.58Y-2.19
X3.59Y-2.83
X3.6Y-1.81
X3.63Y-4.43
X3.64Y-3.5608
X3.64Y-5.23
X3.71Y-2.19
X3.78Y-1.8
X3.79Y-2.655
X3.82Y-2.795
X3.8368Y-2.3468
X3.84Y-4.53
X3.84Y-5.33
X3.845Y-2.42
X3.86Y-3.73
X3.88Y-2.8564
X3.88Y-3.78
X3.8917Y-2.2917
X3.9Y-2.935
X3.9Y-3.11
X3.9154Y-2.42
X3.92Y-2.5
X3.92Y-5.38
X3.925Y-2.61
X3.925Y-2.65
X3.93Y-2.69
X3.93Y-4.59
X3.96Y-2.52
X3.97Y-2.805
X3.9946Y-2.5864
X4.04Y-2.56
X4.0832Y-2.3432
X4.24Y-3.11
X4.24Y-3.44
X4.28Y-4.47
X4.29Y-3.67
X4.355Y-2.025
X4.39Y-2.195
T3
X4.6Y-3.35
X4.6Y-3.4
X4.6Y-3.45
X4.6Y-3.5
X4.6Y-3.55
T4
X2.7458Y-1.7976
X2.9742Y-1.7976
T6
X4.5514Y-2.0356
X4.5514Y-2.1144
X4.555Y-2.95
X4.555Y-3.0287
T7
X4.1116Y-2.1146
X4.1116Y-2.6854
X4.21Y-2.6854
X4.3084Y-2.1146
X4.3084Y-2.6854
T8
X1.885Y-1.71
X2.2Y-1.71
T10
X1.12Y-1.735
X1.12Y-5.79
X4.55Y-1.735
X4.55Y-5.79
X4.915Y-1.735
X4.915Y-5.79
X8.32Y-1.735
X8.32Y-5.79
X8.68Y-1.735
X8.68Y-5.79
X9.2431Y-1.735
X9.2431Y-5.79
T5
G00X2.6895Y-1.6409
M15
G01X2.6895Y-1.6646
M16
G05
G00X2.6895Y-1.8016
M15
G01X2.6895Y-1.8331
M16
G05
G00X3.0305Y-1.6409
M15
G01X3.0305Y-1.6646
M16
G05
G00X3.0305Y-1.8016
M15
G01X3.0305Y-1.8331
M16
G05
T9
G00X3.9895Y-2.4059
M15
G01X3.9895Y-2.3744
M16
G05
G00X4.4305Y-2.4059
M15
G01X4.4305Y-2.3744
M16
G05
T0
M30
