%TF.GenerationSoftware,KiCad,Pcbnew,7.0.8*%
%TF.CreationDate,2023-12-04T11:10:45+01:00*%
%TF.ProjectId,scriptPad_PCB,73637269-7074-4506-9164-5f5043422e6b,rev?*%
%TF.SameCoordinates,Original*%
%TF.FileFunction,Profile,NP*%
%FSLAX46Y46*%
G04 Gerber Fmt 4.6, Leading zero omitted, Abs format (unit mm)*
G04 Created by KiCad (PCBNEW 7.0.8) date 2023-12-04 11:10:45*
%MOMM*%
%LPD*%
G01*
G04 APERTURE LIST*
%TA.AperFunction,Profile*%
%ADD10C,0.100000*%
%TD*%
%TA.AperFunction,Profile*%
%ADD11C,0.050000*%
%TD*%
G04 APERTURE END LIST*
D10*
X115443000Y-39878001D02*
X28709650Y-39886432D01*
X215392000Y-147066000D02*
X216408000Y-147066000D01*
X229790318Y-147066000D02*
X230711682Y-147066000D01*
X244131197Y-44069000D02*
X244094000Y-147066000D01*
X229827515Y-44069000D02*
X230584682Y-44069000D01*
X220472000Y-39878000D02*
X225636515Y-39878000D01*
X124587000Y-39878001D02*
X211328000Y-39878000D01*
X124841000Y-151130000D02*
X211328000Y-151130000D01*
X230711682Y-147066000D02*
G75*
G03*
X234775682Y-151130000I4064000J0D01*
G01*
X244131197Y-44069000D02*
G75*
G03*
X239940197Y-39878000I-4190998J2D01*
G01*
X240030000Y-151130000D02*
G75*
G03*
X244094000Y-147066000I0J4064000D01*
G01*
X234775682Y-151130000D02*
X240030000Y-151130000D01*
X234775682Y-39878000D02*
G75*
G03*
X230584682Y-44069000I-2J-4190998D01*
G01*
X234775682Y-39878000D02*
X239940197Y-39878000D01*
X220472000Y-151130000D02*
X225726318Y-151130000D01*
X229827515Y-44069000D02*
G75*
G03*
X225636515Y-39878000I-4191000J0D01*
G01*
X225726318Y-151130000D02*
G75*
G03*
X229790318Y-147066000I0J4064000D01*
G01*
X216408000Y-147066000D02*
G75*
G03*
X220472000Y-151130000I4064000J0D01*
G01*
X215519000Y-44069000D02*
X216281000Y-44069000D01*
X120650000Y-146812000D02*
X120650000Y-146939000D01*
X119633999Y-146812000D02*
X120650000Y-146812000D01*
X28702000Y-151129999D02*
X115570000Y-151137929D01*
X24384000Y-43942000D02*
X24386419Y-146775887D01*
X120650000Y-43942000D02*
X120650488Y-43807093D01*
X119760743Y-43933815D02*
X120650000Y-43942000D01*
X220472000Y-39878000D02*
G75*
G03*
X216281000Y-44069000I0J-4191000D01*
G01*
X215519000Y-44069000D02*
G75*
G03*
X211328000Y-39878000I-4191000J0D01*
G01*
X211328000Y-151130000D02*
G75*
G03*
X215392000Y-147066000I0J4064000D01*
G01*
X120650000Y-146939000D02*
G75*
G03*
X124841000Y-151130000I4191000J0D01*
G01*
X124587000Y-39878002D02*
G75*
G03*
X120650489Y-43807093I-3711J-3932800D01*
G01*
X115570000Y-151137927D02*
G75*
G03*
X119633998Y-146812000I-130964J4194962D01*
G01*
X119760741Y-43933815D02*
G75*
G03*
X115443000Y-39878002I-4186776J-130963D01*
G01*
X28709650Y-39886432D02*
G75*
G03*
X24384000Y-43942000I-135042J-4190608D01*
G01*
X24386421Y-146775887D02*
G75*
G03*
X28702000Y-151129998I4334845J-19266D01*
G01*
X190627000Y-112014000D02*
X207010000Y-112014000D01*
X207010000Y-126746000D01*
X190627000Y-126746000D01*
X190627000Y-112014000D01*
X43108810Y-73370790D02*
G75*
G03*
X43616790Y-73878790I507990J-10D01*
G01*
X190627000Y-91694000D02*
X207010000Y-91694000D01*
X207010000Y-106426000D01*
X190627000Y-106426000D01*
X190627000Y-91694000D01*
X170307000Y-112014000D02*
X186690000Y-112014000D01*
X186690000Y-126746000D01*
X170307000Y-126746000D01*
X170307000Y-112014000D01*
X149987000Y-132334000D02*
X166370000Y-132334000D01*
X166370000Y-147066000D01*
X149987000Y-147066000D01*
X149987000Y-132334000D01*
X46664790Y-73878790D02*
G75*
G03*
X47172790Y-73370790I10J507990D01*
G01*
X149987000Y-112014000D02*
X166370000Y-112014000D01*
X166370000Y-126746000D01*
X149987000Y-126746000D01*
X149987000Y-112014000D01*
X149987000Y-91694000D02*
X166370000Y-91694000D01*
X166370000Y-106426000D01*
X149987000Y-106426000D01*
X149987000Y-91694000D01*
X43616790Y-56606790D02*
G75*
G03*
X43108790Y-57114790I10J-508010D01*
G01*
X170307000Y-132334000D02*
X186690000Y-132334000D01*
X186690000Y-147066000D01*
X170307000Y-147066000D01*
X170307000Y-132334000D01*
X43616790Y-73878790D02*
X46664790Y-73878790D01*
X129667000Y-91694000D02*
X146050000Y-91694000D01*
X146050000Y-106426000D01*
X129667000Y-106426000D01*
X129667000Y-91694000D01*
X190627000Y-132334000D02*
X207010000Y-132334000D01*
X207010000Y-147066000D01*
X190627000Y-147066000D01*
X190627000Y-132334000D01*
X47172810Y-57114790D02*
G75*
G03*
X46664790Y-56606790I-508010J-10D01*
G01*
X129667000Y-112014000D02*
X146050000Y-112014000D01*
X146050000Y-126746000D01*
X129667000Y-126746000D01*
X129667000Y-112014000D01*
X135302000Y-43865800D02*
X187198000Y-43865800D01*
X187198000Y-85013800D01*
X135302000Y-85013800D01*
X135302000Y-43865800D01*
X170307000Y-91694000D02*
X186690000Y-91694000D01*
X186690000Y-106426000D01*
X170307000Y-106426000D01*
X170307000Y-91694000D01*
X46664790Y-56606790D02*
X43616790Y-56606790D01*
X129667000Y-132334000D02*
X146050000Y-132334000D01*
X146050000Y-147066000D01*
X129667000Y-147066000D01*
X129667000Y-132334000D01*
X43108790Y-57114790D02*
X43108790Y-73370790D01*
X47172790Y-73370790D02*
X47172790Y-57114790D01*
X206195359Y-60960000D02*
G75*
G03*
X206195359Y-60960000I-3503359J0D01*
G01*
D11*
%TO.C,LED9*%
X43942000Y-133223000D02*
X43942000Y-136017000D01*
X43815000Y-136144000D02*
X40513000Y-136144000D01*
X43815000Y-133096000D02*
X40513000Y-133096000D01*
X40386000Y-133223000D02*
X40386000Y-136017000D01*
X43815000Y-136144000D02*
G75*
G03*
X43942000Y-136017000I1J126999D01*
G01*
X43942000Y-133223000D02*
G75*
G03*
X43815000Y-133096000I-126999J1D01*
G01*
X40386000Y-136017000D02*
G75*
G03*
X40513000Y-136144000I127000J0D01*
G01*
X40513000Y-133096000D02*
G75*
G03*
X40386000Y-133223000I0J-127000D01*
G01*
%TO.C,LED8*%
X104902000Y-112903000D02*
X104902000Y-115697000D01*
X104775000Y-115824000D02*
X101473000Y-115824000D01*
X104775000Y-112776000D02*
X101473000Y-112776000D01*
X101346000Y-112903000D02*
X101346000Y-115697000D01*
X104775000Y-115824000D02*
G75*
G03*
X104902000Y-115697000I1J126999D01*
G01*
X104902000Y-112903000D02*
G75*
G03*
X104775000Y-112776000I-126999J1D01*
G01*
X101346000Y-115697000D02*
G75*
G03*
X101473000Y-115824000I127000J0D01*
G01*
X101473000Y-112776000D02*
G75*
G03*
X101346000Y-112903000I0J-127000D01*
G01*
%TO.C,LED1*%
X43942000Y-92583000D02*
X43942000Y-95377000D01*
X43815000Y-95504000D02*
X40513000Y-95504000D01*
X43815000Y-92456000D02*
X40513000Y-92456000D01*
X40386000Y-92583000D02*
X40386000Y-95377000D01*
X43815000Y-95504000D02*
G75*
G03*
X43942000Y-95377000I1J126999D01*
G01*
X43942000Y-92583000D02*
G75*
G03*
X43815000Y-92456000I-126999J1D01*
G01*
X40386000Y-95377000D02*
G75*
G03*
X40513000Y-95504000I127000J0D01*
G01*
X40513000Y-92456000D02*
G75*
G03*
X40386000Y-92583000I0J-127000D01*
G01*
%TO.C,LED4*%
X104902000Y-92583000D02*
X104902000Y-95377000D01*
X104775000Y-95504000D02*
X101473000Y-95504000D01*
X104775000Y-92456000D02*
X101473000Y-92456000D01*
X101346000Y-92583000D02*
X101346000Y-95377000D01*
X104775000Y-95504000D02*
G75*
G03*
X104902000Y-95377000I1J126999D01*
G01*
X104902000Y-92583000D02*
G75*
G03*
X104775000Y-92456000I-126999J1D01*
G01*
X101346000Y-95377000D02*
G75*
G03*
X101473000Y-95504000I127000J0D01*
G01*
X101473000Y-92456000D02*
G75*
G03*
X101346000Y-92583000I0J-127000D01*
G01*
%TO.C,LED5*%
X43942000Y-112903000D02*
X43942000Y-115697000D01*
X43815000Y-115824000D02*
X40513000Y-115824000D01*
X43815000Y-112776000D02*
X40513000Y-112776000D01*
X40386000Y-112903000D02*
X40386000Y-115697000D01*
X43815000Y-115824000D02*
G75*
G03*
X43942000Y-115697000I1J126999D01*
G01*
X43942000Y-112903000D02*
G75*
G03*
X43815000Y-112776000I-126999J1D01*
G01*
X40386000Y-115697000D02*
G75*
G03*
X40513000Y-115824000I127000J0D01*
G01*
X40513000Y-112776000D02*
G75*
G03*
X40386000Y-112903000I0J-127000D01*
G01*
%TO.C,LED6*%
X64262000Y-112903000D02*
X64262000Y-115697000D01*
X64135000Y-115824000D02*
X60833000Y-115824000D01*
X64135000Y-112776000D02*
X60833000Y-112776000D01*
X60706000Y-112903000D02*
X60706000Y-115697000D01*
X64135000Y-115824000D02*
G75*
G03*
X64262000Y-115697000I1J126999D01*
G01*
X64262000Y-112903000D02*
G75*
G03*
X64135000Y-112776000I-126999J1D01*
G01*
X60706000Y-115697000D02*
G75*
G03*
X60833000Y-115824000I127000J0D01*
G01*
X60833000Y-112776000D02*
G75*
G03*
X60706000Y-112903000I0J-127000D01*
G01*
%TO.C,LED12*%
X104902000Y-133223000D02*
X104902000Y-136017000D01*
X104775000Y-136144000D02*
X101473000Y-136144000D01*
X104775000Y-133096000D02*
X101473000Y-133096000D01*
X101346000Y-133223000D02*
X101346000Y-136017000D01*
X104775000Y-136144000D02*
G75*
G03*
X104902000Y-136017000I1J126999D01*
G01*
X104902000Y-133223000D02*
G75*
G03*
X104775000Y-133096000I-126999J1D01*
G01*
X101346000Y-136017000D02*
G75*
G03*
X101473000Y-136144000I127000J0D01*
G01*
X101473000Y-133096000D02*
G75*
G03*
X101346000Y-133223000I0J-127000D01*
G01*
%TO.C,LED10*%
X64262000Y-133223000D02*
X64262000Y-136017000D01*
X64135000Y-136144000D02*
X60833000Y-136144000D01*
X64135000Y-133096000D02*
X60833000Y-133096000D01*
X60706000Y-133223000D02*
X60706000Y-136017000D01*
X64135000Y-136144000D02*
G75*
G03*
X64262000Y-136017000I1J126999D01*
G01*
X64262000Y-133223000D02*
G75*
G03*
X64135000Y-133096000I-126999J1D01*
G01*
X60706000Y-136017000D02*
G75*
G03*
X60833000Y-136144000I127000J0D01*
G01*
X60833000Y-133096000D02*
G75*
G03*
X60706000Y-133223000I0J-127000D01*
G01*
%TO.C,LED7*%
X84582000Y-112903000D02*
X84582000Y-115697000D01*
X84455000Y-115824000D02*
X81153000Y-115824000D01*
X84455000Y-112776000D02*
X81153000Y-112776000D01*
X81026000Y-112903000D02*
X81026000Y-115697000D01*
X84455000Y-115824000D02*
G75*
G03*
X84582000Y-115697000I1J126999D01*
G01*
X84582000Y-112903000D02*
G75*
G03*
X84455000Y-112776000I-126999J1D01*
G01*
X81026000Y-115697000D02*
G75*
G03*
X81153000Y-115824000I127000J0D01*
G01*
X81153000Y-112776000D02*
G75*
G03*
X81026000Y-112903000I0J-127000D01*
G01*
%TO.C,LED2*%
X64262000Y-92583000D02*
X64262000Y-95377000D01*
X64135000Y-95504000D02*
X60833000Y-95504000D01*
X64135000Y-92456000D02*
X60833000Y-92456000D01*
X60706000Y-92583000D02*
X60706000Y-95377000D01*
X64135000Y-95504000D02*
G75*
G03*
X64262000Y-95377000I1J126999D01*
G01*
X64262000Y-92583000D02*
G75*
G03*
X64135000Y-92456000I-126999J1D01*
G01*
X60706000Y-95377000D02*
G75*
G03*
X60833000Y-95504000I127000J0D01*
G01*
X60833000Y-92456000D02*
G75*
G03*
X60706000Y-92583000I0J-127000D01*
G01*
%TO.C,LED11*%
X84582000Y-133223000D02*
X84582000Y-136017000D01*
X84455000Y-136144000D02*
X81153000Y-136144000D01*
X84455000Y-133096000D02*
X81153000Y-133096000D01*
X81026000Y-133223000D02*
X81026000Y-136017000D01*
X84455000Y-136144000D02*
G75*
G03*
X84582000Y-136017000I1J126999D01*
G01*
X84582000Y-133223000D02*
G75*
G03*
X84455000Y-133096000I-126999J1D01*
G01*
X81026000Y-136017000D02*
G75*
G03*
X81153000Y-136144000I127000J0D01*
G01*
X81153000Y-133096000D02*
G75*
G03*
X81026000Y-133223000I0J-127000D01*
G01*
%TO.C,LED3*%
X84582000Y-92583000D02*
X84582000Y-95377000D01*
X84455000Y-95504000D02*
X81153000Y-95504000D01*
X84455000Y-92456000D02*
X81153000Y-92456000D01*
X81026000Y-92583000D02*
X81026000Y-95377000D01*
X84455000Y-95504000D02*
G75*
G03*
X84582000Y-95377000I1J126999D01*
G01*
X84582000Y-92583000D02*
G75*
G03*
X84455000Y-92456000I-126999J1D01*
G01*
X81026000Y-95377000D02*
G75*
G03*
X81153000Y-95504000I127000J0D01*
G01*
X81153000Y-92456000D02*
G75*
G03*
X81026000Y-92583000I0J-127000D01*
G01*
%TD*%
M02*
