%TF.GenerationSoftware,KiCad,Pcbnew,7.0.8*%
%TF.CreationDate,2023-12-04T11:10:45+01:00*%
%TF.ProjectId,scriptPad_PCB,73637269-7074-4506-9164-5f5043422e6b,rev?*%
%TF.SameCoordinates,Original*%
%TF.FileFunction,Soldermask,Top*%
%TF.FilePolarity,Negative*%
%FSLAX46Y46*%
G04 Gerber Fmt 4.6, Leading zero omitted, Abs format (unit mm)*
G04 Created by KiCad (PCBNEW 7.0.8) date 2023-12-04 11:10:45*
%MOMM*%
%LPD*%
G01*
G04 APERTURE LIST*
%ADD10R,1.800000X2.600000*%
%ADD11C,1.600000*%
%ADD12C,5.400000*%
%ADD13C,1.750000*%
%ADD14C,3.050000*%
%ADD15C,4.000000*%
%ADD16C,2.000000*%
%ADD17R,1.000000X1.000000*%
%ADD18O,1.000000X1.000000*%
%ADD19C,0.900000*%
%ADD20C,1.200000*%
%ADD21C,0.750000*%
%ADD22O,1.200000X2.000000*%
%ADD23O,1.200000X1.800000*%
G04 APERTURE END LIST*
D10*
%TO.C,SW1*%
X112534000Y-60710000D03*
X101334000Y-60710000D03*
D11*
X106934000Y-68210000D03*
X109434000Y-68210000D03*
X104434000Y-68210000D03*
X104434000Y-53710000D03*
X109434000Y-53710000D03*
%TD*%
D12*
%TO.C,*%
X234775682Y-147066000D03*
%TD*%
%TO.C,*%
X234775682Y-44069000D03*
%TD*%
D13*
%TO.C,SW_CN9*%
X47244000Y-139700000D03*
D14*
X45974000Y-142240000D03*
D15*
X42164000Y-139700000D03*
D14*
X39624000Y-144780000D03*
D13*
X37084000Y-139700000D03*
%TD*%
D16*
%TO.C,TP24*%
X30988000Y-132080000D03*
%TD*%
%TO.C,TP23*%
X30988000Y-112268000D03*
%TD*%
%TO.C,TP22*%
X30988000Y-88900000D03*
%TD*%
%TO.C,TP21*%
X103124000Y-88900000D03*
%TD*%
%TO.C,TP20*%
X82804000Y-88900000D03*
%TD*%
%TO.C,TP19*%
X62484000Y-88900000D03*
%TD*%
%TO.C,TP18*%
X41656000Y-88900000D03*
%TD*%
%TO.C,TP17*%
X69088000Y-58928000D03*
%TD*%
%TO.C,TP16*%
X69088000Y-61976000D03*
%TD*%
%TO.C,TP15*%
X69088000Y-65024000D03*
%TD*%
%TO.C,TP14*%
X69088000Y-68072000D03*
%TD*%
%TO.C,TP13*%
X69088000Y-71120000D03*
%TD*%
%TO.C,TP12*%
X109220000Y-74930000D03*
%TD*%
%TO.C,TP11*%
X104394000Y-74930000D03*
%TD*%
%TO.C,TP10*%
X105410000Y-48260000D03*
%TD*%
%TO.C,TP9*%
X46990000Y-46990000D03*
%TD*%
%TO.C,TP8*%
X50800000Y-46990000D03*
%TD*%
%TO.C,TP7*%
X54610000Y-46990000D03*
%TD*%
%TO.C,TP6*%
X58420000Y-46990000D03*
%TD*%
%TO.C,TP5*%
X98298000Y-43688000D03*
%TD*%
%TO.C,TP4*%
X91440000Y-43688000D03*
%TD*%
%TO.C,TP3*%
X81788000Y-43688000D03*
%TD*%
%TO.C,TP2*%
X79248000Y-51816000D03*
%TD*%
%TO.C,TP1*%
X66548000Y-51816000D03*
%TD*%
D17*
%TO.C,J1*%
X116840000Y-85090000D03*
D18*
X116840000Y-86360000D03*
X116840000Y-87630000D03*
X116840000Y-88900000D03*
X116840000Y-90170000D03*
%TD*%
D13*
%TO.C,SW_CN6*%
X67564000Y-119380000D03*
D14*
X66294000Y-121920000D03*
D15*
X62484000Y-119380000D03*
D14*
X59944000Y-124460000D03*
D13*
X57404000Y-119380000D03*
%TD*%
D12*
%TO.C,H4*%
X211328000Y-147066000D03*
%TD*%
D13*
%TO.C,SW_CN5*%
X47244000Y-119380000D03*
D14*
X45974000Y-121920000D03*
D15*
X42164000Y-119380000D03*
D14*
X39624000Y-124460000D03*
D13*
X37084000Y-119380000D03*
%TD*%
D12*
%TO.C,*%
X220472000Y-44069000D03*
%TD*%
D13*
%TO.C,SW_CN4*%
X108204000Y-99060000D03*
D14*
X106934000Y-101600000D03*
D15*
X103124000Y-99060000D03*
D14*
X100584000Y-104140000D03*
D13*
X98044000Y-99060000D03*
%TD*%
%TO.C,SW_CN7*%
X87884000Y-119380000D03*
D14*
X86614000Y-121920000D03*
D15*
X82804000Y-119380000D03*
D14*
X80264000Y-124460000D03*
D13*
X77724000Y-119380000D03*
%TD*%
%TO.C,SW_CN3*%
X87884000Y-99060000D03*
D14*
X86614000Y-101600000D03*
D15*
X82804000Y-99060000D03*
D14*
X80264000Y-104140000D03*
D13*
X77724000Y-99060000D03*
%TD*%
%TO.C,SW_CN12*%
X108204000Y-139700000D03*
D14*
X106934000Y-142240000D03*
D15*
X103124000Y-139700000D03*
D14*
X100584000Y-144780000D03*
D13*
X98044000Y-139700000D03*
%TD*%
D12*
%TO.C,*%
X124841000Y-147066000D03*
%TD*%
D13*
%TO.C,SW_CN2*%
X67564000Y-99060000D03*
D14*
X66294000Y-101600000D03*
D15*
X62484000Y-99060000D03*
D14*
X59944000Y-104140000D03*
D13*
X57404000Y-99060000D03*
%TD*%
D12*
%TO.C,*%
X124841000Y-44069000D03*
%TD*%
%TO.C,*%
X220472000Y-147066000D03*
%TD*%
%TO.C,H4*%
X115570000Y-147066000D03*
%TD*%
D13*
%TO.C,SW_CN1*%
X47244000Y-99060000D03*
D14*
X45974000Y-101600000D03*
D15*
X42164000Y-99060000D03*
D14*
X39624000Y-104140000D03*
D13*
X37084000Y-99060000D03*
%TD*%
D12*
%TO.C,H3*%
X28448000Y-147066000D03*
%TD*%
%TO.C,H2*%
X28448000Y-44069000D03*
%TD*%
D13*
%TO.C,SW_CN10*%
X67564000Y-139700000D03*
D14*
X66294000Y-142240000D03*
D15*
X62484000Y-139700000D03*
D14*
X59944000Y-144780000D03*
D13*
X57404000Y-139700000D03*
%TD*%
D12*
%TO.C,*%
X211328000Y-44069000D03*
%TD*%
%TO.C,H1*%
X115570000Y-44069000D03*
%TD*%
D13*
%TO.C,SW_CN11*%
X87884000Y-139700000D03*
D14*
X86614000Y-142240000D03*
D15*
X82804000Y-139700000D03*
D14*
X80264000Y-144780000D03*
D13*
X77724000Y-139700000D03*
%TD*%
%TO.C,SW_CN8*%
X108204000Y-119380000D03*
D14*
X106934000Y-121920000D03*
D15*
X103124000Y-119380000D03*
D14*
X100584000Y-124460000D03*
D13*
X98044000Y-119380000D03*
%TD*%
D19*
%TO.C,SW2*%
X115604500Y-53705000D03*
X115604500Y-51705000D03*
%TD*%
%TO.C,SW3*%
X115697000Y-76930000D03*
X115697000Y-74930000D03*
%TD*%
D20*
%TO.C,Card1*%
X47880000Y-43434000D03*
X55880000Y-43434000D03*
%TD*%
D21*
%TO.C,USBC1*%
X69744000Y-45660000D03*
X75544000Y-45660000D03*
D22*
X68314000Y-46160000D03*
X76974000Y-46160000D03*
D23*
X76974000Y-41980000D03*
X68314000Y-41980000D03*
%TD*%
M02*
